# AST/ASF file generated using VICON BodyLanguage
# -----------------------------------------------
:version 1.10
:name VICON
:units
  mass 1.0
  length 0.45
  angle deg
:documentation
   .ast/.asf automatically generated from VICON data using
   VICON BodyBuilder and BodyLanguage model FoxedUp or BRILLIANT.MOD
:root
   order TX TY TZ RX RY RZ
   axis XYZ
   position 0 0 0  
   orientation 0 0 0 
:bonedata
  begin
     id 1 
     name lhipjoint
     direction 0.710087 -0.641647 0.289942 
     length 2.79038 
     axis 0 0 0  XYZ
  end
  begin
     id 2 
     name lfemur
     direction 0.34202 -0.939693 0  
     length 7.2706  
     axis 0 0 20  XYZ
    dof rx ry rz
    limits (-160.0 20.0)
           (-70.0 70.0)
           (-60.0 70.0)
  end
  begin
     id 3 
     name ltibia
     direction 0.34202 -0.939693 0   
     length 7.86328   
     axis 0 0 20   XYZ
    dof rx
    limits (-10.0 170.0)
  end
  begin
     id 4 
     name lfoot
     direction 0.0541246 -0.148706 0.987399   
     length 2.37542   
     axis -90 7.62852e-016 20   XYZ
    dof rx rz
    limits (-45.0 90.0)
           (-70.0 20.0)
  end
  begin
     id 5 
     name ltoes
     direction 1.53554e-011 -4.21866e-011 1   
     length 1.19593   
     axis -90 7.62852e-016 20   XYZ
    dof rx
    limits (-90.0 20.0)
  end
  begin
     id 6 
     name rhipjoint
     direction -0.675762 -0.671724 0.303533   
     length 2.66544  
     axis 0 0 0  XYZ 
  end
  begin
     id 7 
     name rfemur
     direction -0.34202 -0.939693 0   
     length 8.11844   
     axis 0 0 -20   XYZ
    dof rx ry rz
    limits (-160.0 20.0)
           (-70.0 70.0)
           (-70.0 60.0)
  end
  begin
     id 8 
     name rtibia
     direction -0.34202 -0.939693 0   
     length 7.97082   
     axis 0 0 -20   XYZ
    dof rx
    limits (-10.0 170.0)
 end
 begin
     id 9 
     name rfoot
     direction -0.0726228 -0.199474 0.977208   
     length 2.19677  
     axis -90 -7.62852e-016 -20   XYZ
    dof rx rz
    limits (-45.0 90.0)
           (-20.0 70.0)
  end
  begin
     id 10 
     name rtoes
     direction -1.53508e-011 -4.21913e-011 1   
     length 1.10438   
     axis -90 -7.62852e-016 -20   XYZ
    dof rx
    limits (-90.0 20.0)
  end
  begin
     id 11 
     name lowerback
     direction -0.00404436 0.999673 -0.0252643   
     length 2.03972   
     axis 0 0 0   XYZ
    dof rx ry rz
    limits (-20.0 45.0)
           (-30.0 30.0)
           (-30.0 30.0)
  end
  begin
     id 12 
     name upperback
     direction 0.00744643 0.999969 0.00242763   
     length 2.04273   
     axis 0 0 0   XYZ
    dof rx ry rz
    limits (-20.0 45.0)
           (-30.0 30.0)
           (-30.0 30.0)
  end
  begin
     id 13 
     name thorax
     direction 0.00846113 0.999862 0.0143204   
     length 2.03752   
     axis 0 0 0   XYZ
    dof rx ry rz
    limits (-20.0 45.0)
           (-30.0 30.0)
           (-30.0 30.0)
  end
  begin
     id 14 
     name lowerneck
     direction 0.0328213 0.990857 0.130862   
     length 1.37497   
     axis 0 0 0   XYZ
    dof rx ry rz
    limits (-20.0 45.0)
           (-30.0 30.0)
           (-30.0 30.0)
  end
  begin
     id 15 
     name upperneck
     direction -0.0302832 0.999496 0.00956452   
     length 1.35926   
     axis 0 0 0   XYZ
    dof rx ry rz
    limits (-20.0 45.0)
           (-30.0 30.0)
           (-30.0 30.0)
  end
  begin
     id 16
     name head
     direction -0.0130455 0.999856 -0.0108809  
     length 1.44454  
     axis 0 0 0   XYZ
    dof rx ry rz
    limits (-20.0 45.0)
           (-30.0 30.0)
           (-30.0 30.0)
  end
  begin
     id 17 
     name lclavicle
     direction 0.952957 0.278766 0.119006  
     length 3.10112  
     axis 0 0 0   XYZ
    dof ry rz
    limits (-20.0 10.0)
           (0.0 20.0)
  end
  begin
     id 18 
     name lhumerus
     direction 1 -4.48972e-011 -1.63238e-028   
     length 5.82845   
     axis -180 -30 -90   XYZ
    dof rx ry rz
    limits (-60.0 90.0)
           (-90.0 90.0)
           (-90.0 90.0)
  end
  begin
     id 19
     name lradius
     direction 1 -4.48959e-011 1.45401e-026   
     length 3.49691   
     axis -180 -30 -90   XYZ
    dof rx
    limits (-10.0 170.0)
  end
  begin
     id 20
     name lwrist
     direction 1 -4.48945e-011 2.98015e-026   
     length 1.74845   
     axis -1.7599e-014 90 90   XYZ
    dof ry
    limits (-180.0 0.0)
 end
  begin
     id 21 
     name lhand
     direction 1 -4.4902e-011 5.9603e-026   
     length 0.674998   
     axis -3.80318e-014 90 90   XYZ
    dof rx rz
    limits (-90.0 90.0)
           (-45.0 45.0)
  end
  begin
     id 22 
     name lfingers
     direction 1 -4.48979e-011 1.19206e-025   
     length 0.544201   
     axis -7.60636e-014 90 90   XYZ
    dof rx
    limits (0.0 90.0)
  end
  begin
     id 23
     name lthumb
     direction 0.707107 -6.34941e-011 0.707107   
     length 0.781367   
     axis -90 45 2.85299e-015   XYZ
    dof rx rz
    limits (-45.0 45.0)
           (-45.0 45.0)
  end
  begin
     id 24 
     name rclavicle
     direction -0.967632 0.241887 0.0719654   
     length 3.53012  
     axis 0 0 0   XYZ 
    dof ry rz
    limits (-10.0 20.0)
           (-20.0 0.0)
  end
  begin
     id 25 
     name rhumerus
     direction -1 -4.4897e-011 6.87619e-028  
     length 5.45859   
     axis -180 30 90   XYZ
    dof rx ry rz
    limits (-90.0 60.0)
           (-90.0 90.0)
           (-90.0 90.0)
  end
  begin
     id 26 
     name rradius
     direction -1 -4.48967e-011 1.68055e-026   
     length 3.58491   
     axis -180 30 90   XYZ
    dof rx
    limits (-10.0 170.0)
  end
  begin
     id 27 
     name rwrist
     direction -1 -4.48976e-011 2.98015e-026   
     length 1.79245   
     axis -1.7599e-014 -90 -90   XYZ
    dof ry
    limits (-180.0 0.0)
  end
  begin
     id 28
     name rhand
     direction -1 -4.48996e-011 5.9603e-026   
     length 0.683735   
     axis -3.80318e-014 -90 -90   XYZ
    dof rx rz
    limits (-90.0 90.0)
           (-45.0 45.0)
  end
  begin
     id 29
     name rfingers
     direction -1 -4.48924e-011 1.19206e-025   
     length 0.551245   
     axis -7.60636e-014 -90 -90   XYZ
    dof rx
    limits (0.0 90.0)
  end
  begin
     id 30
     name rthumb
     direction -0.707107 -6.3492e-011 0.707107   
     length 0.791481   
     axis -90 -45 -2.85299e-015   XYZ
    dof rx rz
    limits (-45.0 45.0)
           (-45.0 45.0)
  end
:hierarchy
  begin
    root lhipjoint rhipjoint lowerback
    lhipjoint lfemur
    lfemur ltibia
    ltibia lfoot
    lfoot ltoes
    rhipjoint rfemur
    rfemur rtibia
    rtibia rfoot
    rfoot rtoes
    lowerback upperback
    upperback thorax
    thorax lowerneck lclavicle rclavicle
    lowerneck upperneck
    upperneck head
    lclavicle lhumerus
    lhumerus lradius
    lradius lwrist
    lwrist lhand lthumb
    lhand lfingers
    rclavicle rhumerus
    rhumerus rradius
    rradius rwrist
    rwrist rhand rthumb
    rhand rfingers
  end

#!OML:ASF F:\VICON\USERDATA\INSTALL\rory3\rory3.ASF
:FULLY-SPECIFIED
:DEGREES
723
root 5.52394 17.796 -1.54508 -8.72415 -136.363 7.09145
lowerback 14.8892 1.47399 -1.69284
upperback 1.23734 1.70689 2.32827
thorax -7.16503 0.859183 3.09312
lowerneck 1.41993 -10.7271 -1.3199
upperneck 10.0224 -15.1822 4.13858
head 3.48283 -7.59349 1.11861
rclavicle -4.2043e-014 -4.77083e-015
rhumerus -31.9656 14.6387 -73.1229
rradius 81.7653
rwrist -3.19134
rhand -20.6626 61.976
rfingers 7.12502
rthumb 5.70007 32.0727
lclavicle -4.2043e-014 -4.77083e-015
lhumerus -30.9569 -11.8917 67.2179
lradius 82.7417
lwrist 24.3303
lhand 183.381 69.8813
lfingers 7.12502
lthumb -151.175 -677.913
rfemur -15.5314 -0.196382 16.2495
rtibia 58.2492
rfoot -4.89828 13.3617
rtoes -12.3882
lfemur -1.08449 1.79275 -13.9288
ltibia 37.2463
lfoot -12.5331 1.7463
ltoes -47.6671
724
root 5.64051 17.7769 -1.76757 -9.02269 -136.991 7.43881
lowerback 15.391 1.38923 -0.378811
upperback 0.925359 1.80976 2.05199
thorax -7.73488 0.871132 2.02071
lowerneck 2.17632 -10.7999 -1.16742
upperneck 9.90311 -15.3359 4.43363
head 3.32576 -7.68445 1.2329
rclavicle -8.70677e-014 -1.98785e-016
rhumerus -33.5449 14.2352 -74.3953
rradius 79.8596
rwrist -1.37528
rhand -19.4635 62.7158
rfingers 7.12502
rthumb 6.85776 32.8469
lclavicle -8.70677e-014 -1.98785e-016
lhumerus -31.9063 -13.9445 68.5501
lradius 79.9963
lwrist 24.1248
lhand 181.981 69.4028
lfingers 7.12502
lthumb -152.514 -678.611
rfemur -15.519 1.17766 14.5772
rtibia 58.1056
rfoot -10.361 9.42403
rtoes -20.8291
lfemur 0.285494 0.299343 -12.7711
ltibia 35.9354
lfoot -13.7023 -2.23997
ltoes -30.3808
725
root 5.77547 17.7062 -2.02306 -8.93257 -137.006 7.43296
lowerback 14.9658 1.20018 -1.05056
upperback 1.03951 1.47127 2.5712
thorax -7.39391 0.732286 3.03728
lowerneck 2.1612 -10.6357 -1.7346
upperneck 9.88588 -15.0957 4.33649
head 3.35366 -7.58316 1.29727
rclavicle -7.58798e-014 -1.15295e-014
rhumerus -33.9811 14.5491 -74.6396
rradius 77.7128
rwrist 0.58836
rhand -19.3014 63.2973
rfingers 7.12502
rthumb 7.01426 33.4335
lclavicle -7.58798e-014 -1.15295e-014
lhumerus -32.4771 -14.0591 70.7384
lradius 77.5331
lwrist 22.88
lhand 180.005 68.7122
lfingers 7.12502
lthumb -154.405 -679.588
rfemur -15.4721 2.48184 12.5505
rtibia 57.5446
rfoot -14.2504 4.0963
rtoes -31.1761
lfemur 0.954366 0.260956 -11.5634
ltibia 35.0224
lfoot -14.8737 -3.09986
ltoes -32.7035
726
root 5.91671 17.6163 -2.27991 -7.97456 -136.579 6.74406
lowerback 14.3344 0.92496 -1.82736
upperback 1.06976 0.997403 2.74366
thorax -6.9971 0.527014 3.76501
lowerneck 1.91769 -10.513 -2.12108
upperneck 9.68202 -14.866 4.14242
head 3.33214 -7.47503 1.296
rclavicle -3.47236e-014 1.76421e-014
rhumerus -34.3838 14.6116 -74.83
rradius 75.8262
rwrist 1.91723
rhand -20.2274 62.6847
rfingers 7.12502
rthumb 6.1203 32.7931
lclavicle -3.47236e-014 1.76421e-014
lhumerus -32.7916 -14.8941 72.6333
lradius 75.5854
lwrist 22.2299
lhand 178.293 68.0305
lfingers 7.12502
lthumb -156.046 -680.495
rfemur -15.6057 4.09579 9.93062
rtibia 56.319
rfoot -16.1268 -1.62378
rtoes -35.1905
lfemur 0.777946 0.66123 -10.847
ltibia 34.6369
lfoot -16.1533 -2.85594
ltoes -39.244
727
root 6.06986 17.5249 -2.54571 -6.97532 -135.994 6.29366
lowerback 14.1161 0.717235 -1.57513
upperback 0.639913 0.775687 2.42932
thorax -7.30878 0.428162 3.33024
lowerneck 2.42772 -10.4965 -2.00969
upperneck 9.18728 -14.8191 4.26057
head 3.0687 -7.45812 1.36399
rclavicle -6.98293e-014 -1.90833e-014
rhumerus -35.8231 13.404 -75.2986
rradius 74.2583
rwrist 2.74062
rhand -20.2263 63.2244
rfingers 7.12502
rthumb 6.1213 33.3328
lclavicle -6.98293e-014 -1.90833e-014
lhumerus -33.4053 -17.183 74.0155
lradius 74.1539
lwrist 21.8549
lhand 178.254 68.2138
lfingers 7.12502
lthumb -156.083 -680.317
rfemur -15.9667 4.37013 7.25897
rtibia 54.714
rfoot -16.6124 -7.44829
rtoes -44.5247
lfemur 0.104056 0.892466 -9.82563
ltibia 34.7279
lfoot -16.4998 -5.26794
ltoes -35.1906
728
root 6.21955 17.4816 -2.81563 -6.75732 -135.525 6.95523
lowerback 13.3803 0.506927 -1.45551
upperback 0.610327 0.545601 2.87427
thorax -6.91581 0.312965 3.78008
lowerneck 3.06423 -10.3104 -1.59604
upperneck 7.83883 -14.4029 3.92919
head 2.41755 -7.2542 1.28998
rclavicle 1.10866e-013 -1.10325e-014
rhumerus -36.3252 12.6218 -74.9435
rradius 72.88
rwrist 2.7254
rhand -19.3172 63.2858
rfingers 7.12502
rthumb 6.99892 33.4215
lclavicle 1.10866e-013 -1.10325e-014
lhumerus -33.1279 -18.0264 75.636
lradius 72.3427
lwrist 21.0574
lhand 179.448 68.2797
lfingers 7.12502
lthumb -154.938 -680.096
rfemur -15.7812 7.83355 6.14952
rtibia 52.4873
rfoot -13.5872 -14.8703
rtoes -53.4041
lfemur -0.442152 0.589004 -7.93832
ltibia 34.9586
lfoot -15.3773 -9.99429
ltoes -17.0914
